# xmcd
#
# Track frame offsets:
#	150
#	5755
#	28873
#	54048
#	74318
#	94645
#	117338
#	139485
#	159813
#	183045
#	205105
#	228680
#	254775
#	260983
#
# Disc length: 3770 seconds
#
# Revision: 1
# Processed by: cddbd v1.5.2PL0 Copyright (c) Steve Scherf et al.
# Submitted via: audiograbber 1.83.01
#
DISCID=c70eb80e
DTITLE=Julie - Mua Thu Chet
DYEAR=1989
DGENRE=Viet
TTITLE0=Loi Mo Dau - Julie Doc
TTITLE1=Nuoc Mat Mua Thu
TTITLE2=Nha Trang Ngay Ve
TTITLE3=Tra Lai Em Yeu
TTITLE4=Ta On Doi
TTITLE5=Giet Nguoi Trong Mong
TTITLE6=Tuong Nhu Con Nguoi Yeu
TTITLE7=Mua Thu Chet
TTITLE8=Bao Gio Biet Tuong Tu
TTITLE9=Phuong Yeu
TTITLE10=Ky Vat Cho Em
TTITLE11=Ngay Xua Hoang Thi
TTITLE12=Loi Ket - Tran Quoc Bao Doc
TTITLE13=Neu Mot Mai Em Se Qua Doi
EXTD=
EXTT0=
EXTT1=
EXTT2=
EXTT3=
EXTT4=
EXTT5=
EXTT6=
EXTT7=
EXTT8=
EXTT9=
EXTT10=
EXTT11=
EXTT12=
EXTT13=
PLAYORDER=
